<svg version="1.1" id="Layer_1" xmlns="http://www.w3.org/2000/svg" xmlns:xlink="http://www.w3.org/1999/xlink" x="0px" y="0px"
	 width="100%" viewBox="0 0 1278 514" enable-background="new 0 0 1278 514" xml:space="preserve">
<path fill="#FEFEFF" opacity="1.000000" stroke="none" 
	d="
M771.000000,515.000000 
	C514.000000,515.000000 257.500031,515.000000 1.000034,515.000000 
	C1.000023,343.666687 1.000023,172.333389 1.000011,1.000057 
	C426.999969,1.000038 852.999939,1.000038 1279.000000,1.000019 
	C1279.000000,172.333267 1279.000000,343.666534 1279.000000,514.999878 
	C1109.833374,515.000000 940.666687,515.000000 771.000000,515.000000 
M213.749344,141.018204 
	C213.728760,193.675690 213.676483,246.333252 213.797211,298.990417 
	C213.802338,301.224091 214.917480,303.852173 216.346313,305.628082 
	C261.765381,362.079773 307.268951,418.463623 352.886200,474.755249 
	C354.203766,476.381165 356.886841,477.790558 358.939606,477.799286 
	C400.265411,477.975464 441.592102,477.934113 482.918640,477.912964 
	C483.950287,477.912445 484.981812,477.644226 486.437073,477.441956 
	C485.158752,475.811859 484.256683,474.632538 483.324768,473.477325 
	C430.929871,408.527771 378.516968,343.592743 326.144836,278.624878 
	C310.576752,259.312622 295.122345,239.908783 280.157074,220.014343 
	C312.101349,180.459244 344.045624,140.904144 376.844879,100.290382 
	C373.807648,100.290382 372.063538,100.290382 370.319427,100.290382 
	C330.539246,100.290382 290.758759,100.358727 250.979248,100.191292 
	C246.706833,100.173302 243.871231,101.267509 241.399353,104.822670 
	C238.179443,109.453690 234.263245,113.593979 230.789047,118.056282 
	C225.103256,125.359245 219.532288,132.751602 213.749344,141.018204 
M200.025574,295.500000 
	C200.025574,236.683212 199.984421,177.866348 200.121933,119.049881 
	C200.130722,115.290817 198.935135,113.033287 196.073959,110.750122 
	C164.445786,85.511429 132.924240,60.139107 101.364227,34.814930 
	C100.408669,34.048180 99.348526,33.411774 98.059479,32.523197 
	C98.059479,176.998260 98.059479,320.914551 98.059479,465.299805 
	C98.880646,464.576935 99.284821,464.312012 99.573723,463.954010 
	C132.518646,423.129333 165.471390,382.310883 198.320648,341.409363 
	C199.425858,340.033234 199.935883,337.819397 199.954697,335.988129 
	C200.089905,322.826538 200.026169,309.662964 200.025574,295.500000 
M768.135742,156.261475 
	C745.720581,151.885178 724.097229,153.337814 703.827332,164.927933 
	C669.014282,184.833603 666.120544,233.969559 698.372314,257.749176 
	C723.639465,276.378937 764.044556,277.729950 790.864441,260.841888 
	C814.358032,246.048233 824.011292,218.024017 813.800049,192.476761 
	C805.704163,172.222031 789.328308,161.719482 768.135742,156.261475 
M1093.798584,155.240448 
	C1084.781494,158.483200 1075.121582,160.570908 1066.859009,165.169434 
	C1031.814209,184.673752 1029.157715,234.017883 1061.435303,257.797394 
	C1086.782593,276.471191 1128.113159,277.687439 1154.340332,260.531219 
	C1191.356079,236.317810 1189.285400,184.541016 1150.425049,163.600143 
	C1132.871826,154.141235 1114.077026,152.500427 1093.798584,155.240448 
M553.092529,265.443726 
	C555.966187,267.721893 557.508545,272.494812 562.703491,270.609222 
	C562.703491,232.440659 562.703491,194.342361 562.703491,156.077255 
	C558.618713,156.077255 554.769653,156.077255 550.228638,156.077255 
	C550.228638,186.071747 550.228638,215.693329 550.228638,245.314911 
	C547.952881,244.338730 546.822937,242.931519 545.587891,241.623550 
	C519.505798,214.001511 493.429840,186.373627 467.273132,158.822357 
	C465.795685,157.266129 463.636383,156.357254 461.077148,154.675797 
	C461.077148,194.368912 461.077148,232.572784 461.077148,270.605377 
	C465.177216,270.605377 468.895050,270.605377 473.060852,270.605377 
	C473.060852,241.171204 473.060852,212.136795 473.060852,182.028015 
	C500.081543,210.188583 526.341431,237.556259 553.092529,265.443726 
M846.087341,174.410629 
	C840.941467,168.960098 835.872803,163.432877 830.594482,158.113754 
	C829.297668,156.806915 827.316650,156.179077 825.064453,154.908722 
	C825.064453,194.352173 825.064453,232.553726 825.064453,270.618591 
	C829.152649,270.618591 832.871094,270.618591 837.028320,270.618591 
	C837.028320,241.196152 837.028320,212.159988 837.028320,181.520279 
	C844.042419,189.378540 849.888306,196.293716 856.119507,202.842331 
	C877.020874,224.808121 898.029541,246.672363 919.110107,268.466278 
	C920.605957,270.012756 923.016724,270.674377 925.626099,272.084747 
	C925.626099,232.511398 925.626099,194.275833 925.626099,155.964142 
	C921.550171,155.964142 917.785034,155.964142 913.399780,155.964142 
	C913.399780,185.891403 913.399780,215.559723 913.399780,245.228043 
	C912.975281,245.427170 912.550720,245.626282 912.126221,245.825409 
	C890.275574,222.190491 868.424988,198.555573 846.087341,174.410629 
M427.918823,220.617279 
	C421.626740,208.161987 415.331573,195.708252 409.043640,183.250854 
	C404.854004,174.950439 400.747040,166.606613 396.410156,158.383987 
	C395.782013,157.193039 394.129120,156.002106 392.846405,155.876968 
	C391.909729,155.785599 390.641174,157.317276 389.816772,158.359695 
	C389.009674,159.380310 388.565216,160.691422 387.982574,161.885284 
	C376.916687,184.560410 365.853912,207.237045 354.671326,230.157623 
	C350.477814,230.157623 346.363007,230.157623 342.163025,230.157623 
	C342.163025,233.876114 342.163025,237.241684 342.163025,240.673111 
	C344.623016,240.811340 346.717316,240.929016 349.400208,241.079773 
	C344.527100,251.136826 339.858307,260.772125 334.897827,271.009430 
	C338.347839,271.009430 341.147003,270.777832 343.891022,271.067932 
	C347.331299,271.431641 349.190491,270.220612 350.626801,266.983337 
	C354.058838,259.248169 358.049957,251.762512 361.562225,244.060699 
	C362.707611,241.549103 364.106812,240.756302 366.831238,240.775833 
	C384.812012,240.904800 402.794739,240.909103 420.775421,240.772324 
	C423.545654,240.751251 424.873566,241.695801 426.037140,244.118546 
	C429.919281,252.201675 434.009125,260.187042 438.151947,268.140808 
	C438.749451,269.287903 440.011902,270.779175 441.073151,270.870239 
	C444.912750,271.199768 448.797791,271.000000 453.309723,271.000000 
	C444.658722,253.882141 436.427582,237.594986 427.918823,220.617279 
M959.723938,192.795929 
	C965.527222,200.717392 971.426819,208.571426 977.058472,216.613159 
	C978.290283,218.372223 979.150635,220.791168 979.185547,222.922546 
	C979.384644,235.079910 979.282288,247.242203 979.282288,259.402832 
	C979.282288,263.179871 979.282288,266.956940 979.282288,270.713196 
	C983.633911,270.713196 987.377441,270.713196 991.514404,270.713196 
	C991.514404,255.117386 991.349548,239.812408 991.654419,224.516785 
	C991.714966,221.482788 992.906677,217.987076 994.715454,215.549103 
	C1008.600586,196.833725 1022.770935,178.330048 1036.836426,159.748322 
	C1037.664307,158.654709 1038.351562,157.454651 1039.511230,155.682098 
	C1036.393799,155.682098 1034.056396,155.958084 1031.809204,155.625397 
	C1026.934814,154.903778 1023.991394,156.923477 1021.163513,160.888306 
	C1012.079590,173.624374 1002.551941,186.044037 993.189148,198.581085 
	C990.734070,201.868500 988.256226,205.138901 985.620667,208.640579 
	C984.303894,206.909683 983.273010,205.610214 982.300842,204.268158 
	C971.366028,189.172104 960.467346,174.049713 949.466125,159.002289 
	C948.480774,157.654602 946.931396,155.989471 945.498962,155.837372 
	C941.446777,155.407059 937.319214,155.686752 932.452087,155.686752 
	C941.764221,168.379578 950.516724,180.309494 959.723938,192.795929 
M627.514343,244.500229 
	C627.514343,237.508286 627.304321,230.506592 627.628235,223.529694 
	C627.741943,221.079590 628.621887,218.284027 630.076172,216.336319 
	C644.208618,197.408951 658.540894,178.630844 672.801331,159.798950 
	C673.638794,158.692978 674.349304,157.490814 675.552002,155.682098 
	C672.283691,155.682098 669.797668,155.923996 667.376892,155.629456 
	C662.951233,155.091003 660.108093,156.705292 657.517944,160.434631 
	C651.353333,169.310608 644.673401,177.828476 638.208435,186.496048 
	C632.753296,193.809799 627.307556,201.130600 621.672424,208.697052 
	C620.373901,206.992172 619.345276,205.698349 618.376465,204.361206 
	C607.349609,189.141495 596.363281,173.892151 585.255981,158.731415 
	C584.296814,157.422134 582.628113,155.974457 581.161377,155.822525 
	C577.252136,155.417526 573.273254,155.684769 568.643311,155.684769 
	C570.001038,157.659851 570.875183,159.008255 571.824768,160.301163 
	C585.510620,178.935806 599.264343,197.521317 612.815308,216.253494 
	C614.241516,218.225098 615.137451,221.039963 615.175293,223.480698 
	C615.394409,237.627655 615.282288,251.779755 615.282288,265.930115 
	C615.282288,267.536377 615.282349,269.142609 615.282349,270.704529 
	C619.648804,270.704529 623.390747,270.704529 627.514221,270.704529 
	C627.514221,262.102875 627.514221,253.801559 627.514343,244.500229 
M616.282104,343.012665 
	C619.380920,345.329529 622.167419,348.765198 625.642212,349.735199 
	C633.367981,351.891724 640.692688,349.627472 647.302368,344.399567 
	C650.493347,348.784790 654.105835,351.802856 659.888123,349.254730 
	C656.953308,345.998535 654.083618,342.814667 652.113342,340.628632 
	C652.901367,333.927277 653.574036,328.206757 654.276611,322.231628 
	C650.022644,322.231628 647.241943,322.231628 644.555176,322.231628 
	C642.578125,326.845581 646.030396,326.814270 649.236328,327.220337 
	C648.636536,330.018951 648.116577,332.445007 647.395264,335.810883 
	C639.955139,328.008453 633.148132,321.180634 626.792969,313.955322 
	C625.445190,312.422974 624.668091,308.797302 625.565613,307.289795 
	C626.654602,305.460785 629.714050,304.232056 632.079773,303.909821 
	C634.127991,303.630798 636.398193,304.981140 638.875732,305.699890 
	C639.820801,304.474670 640.917908,303.052307 642.006287,301.641205 
	C636.571167,296.798035 627.354797,296.587006 622.234375,301.056000 
	C617.008118,305.617340 617.479797,311.429169 623.806702,320.430603 
	C615.255127,327.014862 612.977356,333.390869 616.282104,343.012665 
M1116.869385,302.932190 
	C1126.823486,302.030640 1135.586304,304.606567 1142.789429,312.369141 
	C1144.194214,310.510223 1145.330688,309.006256 1146.424927,307.558228 
	C1134.743286,296.470245 1115.473877,294.016815 1102.046753,301.582062 
	C1084.308105,311.576599 1083.897217,335.747528 1101.288330,346.188354 
	C1114.042358,353.845215 1134.370361,351.693695 1145.718872,341.325409 
	C1144.516602,340.007568 1143.315186,338.690796 1142.153809,337.417908 
	C1131.143799,344.296814 1129.151123,345.039703 1120.931641,345.398804 
	C1105.676392,346.065308 1094.148682,335.787750 1095.035156,322.310974 
	C1095.682617,312.467133 1103.301025,305.434357 1116.869385,302.932190 
M692.876648,322.315186 
	C690.327637,326.287476 690.329529,332.889465 681.660156,331.188019 
	C683.037109,334.086609 683.889587,335.881195 685.026489,338.274353 
	C683.525757,341.451721 681.630005,345.465607 679.734253,349.479492 
	C680.065796,349.943604 680.397339,350.407745 680.728821,350.871857 
	C682.888184,349.774231 686.531494,349.086273 686.966003,347.512421 
	C689.783997,337.305420 696.518677,334.739563 706.021301,336.417267 
	C707.314209,336.645508 708.726013,336.668610 710.007996,336.412445 
	C717.437439,334.928284 721.897766,338.068085 723.965820,345.118317 
	C725.263000,349.540497 728.038696,351.175812 732.831726,349.492981 
	C724.467529,332.842041 716.162781,316.209778 707.740234,299.637360 
	C706.277283,296.758759 704.889832,297.598328 703.677612,300.126312 
	C700.229675,307.316559 696.657715,314.447357 692.876648,322.315186 
M1206.476074,314.850861 
	C1204.654785,318.583771 1202.587036,322.220428 1201.082520,326.076904 
	C1199.606689,329.859741 1197.609131,332.338074 1191.884888,331.001434 
	C1193.065308,333.961456 1193.840332,335.905121 1194.899292,338.561066 
	C1193.478516,341.560455 1191.596680,345.533142 1189.680786,349.577911 
	C1194.527588,351.012299 1197.125122,349.455353 1198.422119,345.182495 
	C1198.993774,343.299530 1200.305054,341.649597 1200.960327,339.781525 
	C1201.872192,337.182098 1203.436890,336.247803 1206.207642,336.387787 
	C1210.695801,336.614502 1215.284180,336.987061 1219.685547,336.329315 
	C1227.315918,335.189026 1231.953613,337.842224 1234.069824,345.284332 
	C1235.286743,349.563354 1238.039795,351.379669 1242.807861,349.337463 
	C1234.069702,332.046326 1225.364624,314.820465 1216.659424,297.594604 
	C1216.092407,297.571930 1215.525391,297.549225 1214.958496,297.526520 
	C1212.252686,303.082275 1209.546875,308.638062 1206.476074,314.850861 
M993.381775,334.157776 
	C1004.981201,334.157776 1016.580566,334.157776 1028.068359,334.157776 
	C1029.776855,322.313782 1024.995239,314.672577 1015.010986,312.396729 
	C1001.295349,309.270325 990.709412,315.322052 986.457520,328.769867 
	C985.069336,328.958191 983.654114,329.150238 982.248657,329.340912 
	C982.248657,330.944580 982.248657,332.224701 982.248657,333.808868 
	C983.793091,333.944336 985.220764,334.069550 986.558960,334.186951 
	C988.810608,344.062958 993.907104,348.778839 1003.854126,350.407532 
	C1014.295471,352.117157 1024.556396,348.521820 1028.560303,341.789703 
	C1027.369263,340.488342 1026.191284,339.201202 1024.976929,337.874329 
	C1017.695679,348.595673 995.527039,348.092682 993.381775,334.157776 
M943.243774,312.966644 
	C939.131592,312.710297 934.947083,311.843384 930.921753,312.320312 
	C921.550964,313.430603 915.395935,320.473175 914.882629,329.761536 
	C914.320251,339.936646 919.213257,347.469940 928.335999,349.778992 
	C935.693481,351.641266 942.848694,351.131927 949.249817,346.417511 
	C949.580322,346.174164 950.154114,346.261200 950.617371,346.194000 
	C950.804749,347.526184 950.975403,348.739044 951.169800,350.120575 
	C953.131470,349.962311 954.692566,349.836365 956.228394,349.712463 
	C956.228394,337.229492 956.228394,325.148132 956.228394,312.835815 
	C954.404663,312.835815 952.818115,312.835815 951.144836,312.835815 
	C951.005371,314.248596 950.884094,315.476898 950.759460,316.739471 
	C948.372803,315.453491 946.208679,314.287476 943.243774,312.966644 
M1165.482788,327.827209 
	C1171.170166,326.887817 1177.093872,326.646637 1182.481567,324.822357 
	C1188.469482,322.794922 1191.489868,316.456512 1190.818237,310.397278 
	C1190.131958,304.207428 1186.475586,299.922180 1179.459106,299.089539 
	C1170.819702,298.064301 1162.061646,298.039642 1153.049927,297.566528 
	C1153.049927,306.479614 1153.049927,314.416870 1153.049927,322.590729 
	C1151.611328,322.823517 1150.399414,323.019623 1147.636963,323.466614 
	C1149.590210,325.897308 1150.913818,327.544403 1152.237427,329.191498 
	C1152.574829,328.998657 1152.912354,328.805817 1153.249756,328.612976 
	C1153.249756,335.704041 1153.249756,342.795074 1153.249756,349.818115 
	C1155.244873,349.818115 1156.859985,349.818115 1159.018066,349.818115 
	C1159.018066,342.422394 1159.018066,335.207886 1159.018066,327.833923 
	C1161.214111,327.833923 1162.865112,327.833923 1165.482788,327.827209 
M843.286499,349.984406 
	C859.403687,345.700348 860.675232,330.625397 856.009644,321.959015 
	C851.973083,314.460938 841.836426,310.435028 831.711975,312.236633 
	C822.022644,313.960754 815.417542,321.186920 815.001648,330.517853 
	C814.586426,339.835022 820.250427,347.702179 829.664673,349.737396 
	C833.769653,350.624817 838.193665,350.036163 843.286499,349.984406 
M739.209106,317.861786 
	C737.720459,324.792725 739.368286,328.218628 745.776855,330.897705 
	C748.057190,331.850952 750.522766,332.368835 752.915588,333.043457 
	C755.950317,333.899048 759.150452,334.377777 761.977844,335.675629 
	C763.532104,336.389038 765.394287,338.437744 765.414368,339.907593 
	C765.433350,341.297974 763.391724,342.935730 761.938538,344.050079 
	C760.966919,344.795074 759.457520,344.924805 758.157410,345.140839 
	C751.351807,346.271820 744.980042,344.883789 738.730713,341.247955 
	C737.773560,343.019836 736.953064,344.538727 735.972168,346.354614 
	C745.885132,351.288544 755.744629,351.960510 765.789551,348.681610 
	C769.822571,347.365112 772.598511,344.394135 772.577026,339.782104 
	C772.555664,335.205688 769.992126,332.308960 765.762207,331.000427 
	C761.011902,329.530945 756.019653,328.706940 751.460022,326.813812 
	C749.093689,325.831390 747.433716,323.147858 745.454651,321.232788 
	C747.832520,319.816071 750.212708,317.210968 752.587708,317.215759 
	C758.604065,317.227875 764.618042,318.411377 771.216675,319.195068 
	C771.550293,318.572662 772.304138,317.166321 773.359924,315.196777 
	C769.106628,314.075684 765.328003,312.457031 761.456421,312.190948 
	C753.772888,311.662842 745.673584,310.340332 739.209106,317.861786 
M779.025757,316.601166 
	C776.122559,323.167755 777.534058,327.484650 783.885071,330.447296 
	C786.414551,331.627228 789.213684,332.246490 791.914795,333.036499 
	C794.940613,333.921539 798.147705,334.376862 800.975464,335.674164 
	C802.530212,336.387482 804.392883,338.434662 804.414124,339.905029 
	C804.434265,341.295044 802.393677,342.934326 800.941101,344.049164 
	C799.969971,344.794495 798.460327,344.924530 797.160217,345.140442 
	C790.354858,346.270538 783.982361,344.886414 777.732422,341.247162 
	C776.774597,343.018738 775.953857,344.536896 774.971680,346.353607 
	C784.883057,351.288391 794.741943,351.960266 804.786804,348.682648 
	C808.819824,347.366699 811.597107,344.397217 811.576904,339.785034 
	C811.556885,335.208649 808.994812,332.310394 804.764954,331.001373 
	C800.014832,329.531281 795.022705,328.707336 790.462830,326.814545 
	C788.095703,325.832001 786.434021,323.149933 784.453735,321.235626 
	C786.830933,319.818024 789.210449,317.211334 791.584839,317.215973 
	C797.601257,317.227692 803.615417,318.411163 810.215515,319.194824 
	C810.548767,318.574158 811.303894,317.167877 812.273865,315.361328 
	C800.970947,311.583252 790.173889,308.915588 779.025757,316.601166 
M1039.871338,349.796356 
	C1042.521484,350.067535 1045.222168,350.797272 1047.810791,350.511353 
	C1052.703369,349.970886 1057.889648,349.636841 1062.248047,347.660461 
	C1064.752319,346.524841 1066.785767,342.512085 1067.377197,339.472656 
	C1068.083496,335.843109 1065.567627,332.790863 1061.894531,331.491119 
	C1058.151489,330.166656 1054.295044,329.163513 1050.489380,328.015900 
	C1048.269043,327.346344 1045.824951,327.042084 1043.904053,325.876923 
	C1042.393433,324.960663 1040.580322,322.929779 1040.653320,321.482330 
	C1040.722412,320.112091 1042.901001,318.562683 1044.474609,317.646912 
	C1045.664551,316.954407 1047.400024,316.817627 1048.828613,316.984192 
	C1054.509766,317.646393 1060.165771,318.524597 1066.189331,319.373260 
	C1066.641479,318.435059 1067.318237,317.030640 1068.032349,315.548950 
	C1059.680420,311.645905 1051.326050,310.888489 1042.821045,312.526276 
	C1038.103516,313.434723 1033.708862,315.341309 1033.497559,321.258514 
	C1033.294922,326.925690 1037.023804,329.620117 1041.703979,331.186279 
	C1045.942139,332.604492 1050.321289,333.602264 1054.643188,334.767639 
	C1057.650879,335.578674 1061.199829,336.823059 1060.398071,340.299622 
	C1059.949097,342.246643 1056.555420,344.286926 1054.147949,344.864014 
	C1047.129395,346.546417 1040.324707,345.176331 1033.764404,341.218170 
	C1032.791992,342.995667 1031.964600,344.507965 1030.872803,346.503571 
	C1033.873901,347.628387 1036.476440,348.603790 1039.871338,349.796356 
M864.776611,343.611877 
	C874.442871,354.045197 894.694641,352.899933 901.293762,341.382385 
	C900.015747,340.259155 898.710266,339.111786 897.410767,337.969635 
	C889.959229,346.282837 877.848633,347.699097 870.993103,341.302643 
	C865.676025,336.341705 865.388062,327.189697 870.382996,321.914703 
	C877.267700,314.643982 888.232788,315.663361 897.567505,324.884705 
	C898.737549,323.563080 899.911499,322.237091 901.035889,320.967010 
	C894.961304,310.166748 876.596252,309.836243 868.299438,315.868469 
	C860.208008,321.751434 858.350342,333.189789 864.776611,343.611877 
M964.972778,325.546326 
	C964.975220,329.540039 964.923035,333.534698 964.991089,337.527283 
	C965.146973,346.664673 968.645020,350.028931 977.910583,350.012909 
	C978.676453,350.011597 979.442017,349.835907 980.439575,349.712555 
	C980.302979,347.967804 980.193176,346.565979 980.076050,345.069855 
	C975.552795,345.110840 971.270203,344.805542 971.063538,339.301300 
	C970.796936,332.201569 970.998474,325.084290 970.998474,317.490601 
	C974.830688,317.490601 978.392700,317.490601 982.284363,317.490601 
	C982.159119,315.581665 982.067383,314.184845 981.956055,312.488586 
	C978.156189,312.488586 974.715332,312.488586 970.726929,312.488586 
	C970.726929,308.632629 970.726929,305.081055 970.726929,301.498901 
	C962.872498,302.288544 965.614319,308.212860 964.777405,312.348755 
	C962.868042,312.502716 961.081787,312.646729 959.207764,312.797821 
	C959.207764,314.373627 959.207764,315.797211 959.207764,317.393372 
	C961.204956,317.568085 962.962769,317.721832 964.972839,317.897644 
	C964.972839,320.263489 964.972839,322.411896 964.972778,325.546326 
M910.824768,335.492004 
	C910.824768,328.051270 910.824768,320.610565 910.824768,312.884247 
	C908.845642,312.884247 907.101685,312.884247 905.141235,312.884247 
	C905.141235,325.224701 905.141235,337.438171 905.141235,349.697083 
	C907.024963,349.697083 908.722534,349.697083 910.817261,349.697083 
	C910.817261,345.081757 910.817261,340.784393 910.824768,335.492004 
M908.432434,306.057678 
	C914.319519,304.634796 909.636292,300.731140 910.855530,298.228699 
	C908.538818,298.228699 906.776123,298.228699 904.401489,298.228699 
	C906.146912,300.890076 901.753479,305.105774 908.432434,306.057678 
z"/>
<path fill="#0B2158" opacity="1.000000" stroke="none" 
	d="
M279.615845,220.546906 
	C295.122345,239.908783 310.576752,259.312622 326.144836,278.624878 
	C378.516968,343.592743 430.929871,408.527771 483.324768,473.477325 
	C484.256683,474.632538 485.158752,475.811859 486.437073,477.441956 
	C484.981812,477.644226 483.950287,477.912445 482.918640,477.912964 
	C441.592102,477.934113 400.265411,477.975464 358.939606,477.799286 
	C356.886841,477.790558 354.203766,476.381165 352.886200,474.755249 
	C307.268951,418.463623 261.765381,362.079773 216.346313,305.628082 
	C214.917480,303.852173 213.802338,301.224091 213.797211,298.990417 
	C213.676483,246.333252 213.728760,193.675690 214.142944,140.686386 
	C220.492706,147.732788 226.430283,155.126099 232.408615,162.486282 
	C248.134888,181.847519 263.878906,201.194336 279.615845,220.546906 
z"/>
<path fill="#0A2058" opacity="1.000000" stroke="none" 
	d="
M200.025574,296.000000 
	C200.026169,309.662964 200.089905,322.826538 199.954697,335.988129 
	C199.935883,337.819397 199.425858,340.033234 198.320648,341.409363 
	C165.471390,382.310883 132.518646,423.129333 99.573723,463.954010 
	C99.284821,464.312012 98.880646,464.576935 98.059479,465.299805 
	C98.059479,320.914551 98.059479,176.998260 98.059479,32.523197 
	C99.348526,33.411774 100.408669,34.048180 101.364227,34.814930 
	C132.924240,60.139107 164.445786,85.511429 196.073959,110.750122 
	C198.935135,113.033287 200.130722,115.290817 200.121933,119.049881 
	C199.984421,177.866348 200.025574,236.683212 200.025574,296.000000 
z"/>
<path fill="#F5B648" opacity="1.000000" stroke="none" 
	d="
M279.886475,220.280624 
	C263.878906,201.194336 248.134888,181.847519 232.408615,162.486282 
	C226.430283,155.126099 220.492706,147.732788 214.224731,140.230408 
	C219.532288,132.751602 225.103256,125.359245 230.789047,118.056282 
	C234.263245,113.593979 238.179443,109.453690 241.399353,104.822670 
	C243.871231,101.267509 246.706833,100.173302 250.979248,100.191292 
	C290.758759,100.358727 330.539246,100.290382 370.319427,100.290382 
	C372.063538,100.290382 373.807648,100.290382 376.844879,100.290382 
	C344.045624,140.904144 312.101349,180.459244 279.886475,220.280624 
z"/>
<path fill="#0F255B" opacity="1.000000" stroke="none" 
	d="
M768.524170,156.408539 
	C789.328308,161.719482 805.704163,172.222031 813.800049,192.476761 
	C824.011292,218.024017 814.358032,246.048233 790.864441,260.841888 
	C764.044556,277.729950 723.639465,276.378937 698.372314,257.749176 
	C666.120544,233.969559 669.014282,184.833603 703.827332,164.927933 
	C724.097229,153.337814 745.720581,151.885178 768.524170,156.408539 
M783.871948,175.522491 
	C762.628784,162.850388 740.373108,161.626190 717.906128,171.136978 
	C700.932739,178.322205 690.219604,191.323364 689.130005,210.314880 
	C687.998108,230.042145 696.997498,244.818985 714.301147,253.812653 
	C735.082336,264.613800 756.812866,264.814636 777.722229,254.696548 
	C811.274231,238.460602 814.488770,197.374054 783.871948,175.522491 
z"/>
<path fill="#0F255B" opacity="1.000000" stroke="none" 
	d="
M1094.229492,155.179062 
	C1114.077026,152.500427 1132.871826,154.141235 1150.425049,163.600143 
	C1189.285400,184.541016 1191.356079,236.317810 1154.340332,260.531219 
	C1128.113159,277.687439 1086.782593,276.471191 1061.435303,257.797394 
	C1029.157715,234.017883 1031.814209,184.673752 1066.859009,165.169434 
	C1075.121582,160.570908 1084.781494,158.483200 1094.229492,155.179062 
M1155.137451,182.363937 
	C1153.265747,180.717728 1151.556763,178.825623 1149.497559,177.462845 
	C1125.700562,161.715027 1100.834106,160.799606 1075.867676,173.783920 
	C1060.456299,181.798920 1052.027222,195.303513 1052.023804,213.035278 
	C1052.020264,230.877441 1060.343506,244.424789 1075.760498,252.969452 
	C1096.473999,264.449646 1118.242188,264.810211 1139.598999,255.264465 
	C1172.507690,240.555420 1175.325928,203.301575 1155.137451,182.363937 
z"/>
<path fill="#0E245B" opacity="1.000000" stroke="none" 
	d="
M552.846924,265.183838 
	C526.341431,237.556259 500.081543,210.188583 473.060852,182.028015 
	C473.060852,212.136795 473.060852,241.171204 473.060852,270.605377 
	C468.895050,270.605377 465.177216,270.605377 461.077148,270.605377 
	C461.077148,232.572784 461.077148,194.368912 461.077148,154.675797 
	C463.636383,156.357254 465.795685,157.266129 467.273132,158.822357 
	C493.429840,186.373627 519.505798,214.001511 545.587891,241.623550 
	C546.822937,242.931519 547.952881,244.338730 550.228638,245.314911 
	C550.228638,215.693329 550.228638,186.071747 550.228638,156.077255 
	C554.769653,156.077255 558.618713,156.077255 562.703491,156.077255 
	C562.703491,194.342361 562.703491,232.440659 562.703491,270.609222 
	C557.508545,272.494812 555.966187,267.721893 552.846924,265.183838 
z"/>
<path fill="#0E245B" opacity="1.000000" stroke="none" 
	d="
M846.330811,174.665649 
	C868.424988,198.555573 890.275574,222.190491 912.126221,245.825409 
	C912.550720,245.626282 912.975281,245.427170 913.399780,245.228043 
	C913.399780,215.559723 913.399780,185.891403 913.399780,155.964142 
	C917.785034,155.964142 921.550171,155.964142 925.626099,155.964142 
	C925.626099,194.275833 925.626099,232.511398 925.626099,272.084747 
	C923.016724,270.674377 920.605957,270.012756 919.110107,268.466278 
	C898.029541,246.672363 877.020874,224.808121 856.119507,202.842331 
	C849.888306,196.293716 844.042419,189.378540 837.028320,181.520279 
	C837.028320,212.159988 837.028320,241.196152 837.028320,270.618591 
	C832.871094,270.618591 829.152649,270.618591 825.064453,270.618591 
	C825.064453,232.553726 825.064453,194.352173 825.064453,154.908722 
	C827.316650,156.179077 829.297668,156.806915 830.594482,158.113754 
	C835.872803,163.432877 840.941467,168.960098 846.330811,174.665649 
z"/>
<path fill="#0F255C" opacity="1.000000" stroke="none" 
	d="
M428.057617,220.962555 
	C436.427582,237.594986 444.658722,253.882141 453.309723,271.000000 
	C448.797791,271.000000 444.912750,271.199768 441.073151,270.870239 
	C440.011902,270.779175 438.749451,269.287903 438.151947,268.140808 
	C434.009125,260.187042 429.919281,252.201675 426.037140,244.118546 
	C424.873566,241.695801 423.545654,240.751251 420.775421,240.772324 
	C402.794739,240.909103 384.812012,240.904800 366.831238,240.775833 
	C364.106812,240.756302 362.707611,241.549103 361.562225,244.060699 
	C358.049957,251.762512 354.058838,259.248169 350.626801,266.983337 
	C349.190491,270.220612 347.331299,271.431641 343.891022,271.067932 
	C341.147003,270.777832 338.347839,271.009430 334.897827,271.009430 
	C339.858307,260.772125 344.527100,251.136826 349.400208,241.079773 
	C346.717316,240.929016 344.623016,240.811340 342.163025,240.673111 
	C342.163025,237.241684 342.163025,233.876114 342.163025,230.157623 
	C346.363007,230.157623 350.477814,230.157623 354.671326,230.157623 
	C365.853912,207.237045 376.916687,184.560410 387.982574,161.885284 
	C388.565216,160.691422 389.009674,159.380310 389.816772,158.359695 
	C390.641174,157.317276 391.909729,155.785599 392.846405,155.876968 
	C394.129120,156.002106 395.782013,157.193039 396.410156,158.383987 
	C400.747040,166.606613 404.854004,174.950439 409.043640,183.250854 
	C415.331573,195.708252 421.626740,208.161987 428.057617,220.962555 
M368.949005,229.049789 
	C370.089813,229.385696 371.226227,229.993286 372.372192,230.011963 
	C378.355988,230.109558 384.342224,230.057587 390.327606,230.057587 
	C399.549438,230.057602 408.771271,230.057602 418.827759,230.057602 
	C410.199066,212.478729 401.959381,195.692444 393.334076,178.120544 
	C384.985291,195.422455 377.068024,211.830032 368.949005,229.049789 
z"/>
<path fill="#10255C" opacity="1.000000" stroke="none" 
	d="
M959.496582,192.517670 
	C950.516724,180.309494 941.764221,168.379578 932.452087,155.686752 
	C937.319214,155.686752 941.446777,155.407059 945.498962,155.837372 
	C946.931396,155.989471 948.480774,157.654602 949.466125,159.002289 
	C960.467346,174.049713 971.366028,189.172104 982.300842,204.268158 
	C983.273010,205.610214 984.303894,206.909683 985.620667,208.640579 
	C988.256226,205.138901 990.734070,201.868500 993.189148,198.581085 
	C1002.551941,186.044037 1012.079590,173.624374 1021.163513,160.888306 
	C1023.991394,156.923477 1026.934814,154.903778 1031.809204,155.625397 
	C1034.056396,155.958084 1036.393799,155.682098 1039.511230,155.682098 
	C1038.351562,157.454651 1037.664307,158.654709 1036.836426,159.748322 
	C1022.770935,178.330048 1008.600586,196.833725 994.715454,215.549103 
	C992.906677,217.987076 991.714966,221.482788 991.654419,224.516785 
	C991.349548,239.812408 991.514404,255.117386 991.514404,270.713196 
	C987.377441,270.713196 983.633911,270.713196 979.282288,270.713196 
	C979.282288,266.956940 979.282288,263.179871 979.282288,259.402832 
	C979.282288,247.242203 979.384644,235.079910 979.185547,222.922546 
	C979.150635,220.791168 978.290283,218.372223 977.058472,216.613159 
	C971.426819,208.571426 965.527222,200.717392 959.496582,192.517670 
z"/>
<path fill="#10255C" opacity="1.000000" stroke="none" 
	d="
M627.514282,245.000229 
	C627.514221,253.801559 627.514221,262.102875 627.514221,270.704529 
	C623.390747,270.704529 619.648804,270.704529 615.282349,270.704529 
	C615.282349,269.142609 615.282288,267.536377 615.282288,265.930115 
	C615.282288,251.779755 615.394409,237.627655 615.175293,223.480698 
	C615.137451,221.039963 614.241516,218.225098 612.815308,216.253494 
	C599.264343,197.521317 585.510620,178.935806 571.824768,160.301163 
	C570.875183,159.008255 570.001038,157.659851 568.643311,155.684769 
	C573.273254,155.684769 577.252136,155.417526 581.161377,155.822525 
	C582.628113,155.974457 584.296814,157.422134 585.255981,158.731415 
	C596.363281,173.892151 607.349609,189.141495 618.376465,204.361206 
	C619.345276,205.698349 620.373901,206.992172 621.672424,208.697052 
	C627.307556,201.130600 632.753296,193.809799 638.208435,186.496048 
	C644.673401,177.828476 651.353333,169.310608 657.517944,160.434631 
	C660.108093,156.705292 662.951233,155.091003 667.376892,155.629456 
	C669.797668,155.923996 672.283691,155.682098 675.552002,155.682098 
	C674.349304,157.490814 673.638794,158.692978 672.801331,159.798950 
	C658.540894,178.630844 644.208618,197.408951 630.076172,216.336319 
	C628.621887,218.284027 627.741943,221.079590 627.628235,223.529694 
	C627.304321,230.506592 627.514343,237.508286 627.514282,245.000229 
z"/>
<path fill="#0A0A0A" opacity="1.000000" stroke="none" 
	d="
M616.135010,342.665039 
	C612.977356,333.390869 615.255127,327.014862 623.806702,320.430603 
	C617.479797,311.429169 617.008118,305.617340 622.234375,301.056000 
	C627.354797,296.587006 636.571167,296.798035 642.006287,301.641205 
	C640.917908,303.052307 639.820801,304.474670 638.875732,305.699890 
	C636.398193,304.981140 634.127991,303.630798 632.079773,303.909821 
	C629.714050,304.232056 626.654602,305.460785 625.565613,307.289795 
	C624.668091,308.797302 625.445190,312.422974 626.792969,313.955322 
	C633.148132,321.180634 639.955139,328.008453 647.395264,335.810883 
	C648.116577,332.445007 648.636536,330.018951 649.236328,327.220337 
	C646.030396,326.814270 642.578125,326.845581 644.555176,322.231628 
	C647.241943,322.231628 650.022644,322.231628 654.276611,322.231628 
	C653.574036,328.206757 652.901367,333.927277 652.113342,340.628632 
	C654.083618,342.814667 656.953308,345.998535 659.888123,349.254730 
	C654.105835,351.802856 650.493347,348.784790 647.302368,344.399567 
	C640.692688,349.627472 633.367981,351.891724 625.642212,349.735199 
	C622.167419,348.765198 619.380920,345.329529 616.135010,342.665039 
M640.938354,337.541840 
	C636.493042,333.163727 632.047729,328.785645 627.649109,324.453583 
	C621.163391,328.975433 619.044189,334.628479 621.735352,339.732056 
	C624.386108,344.758789 630.598938,346.295624 637.508545,343.527405 
	C639.026855,342.919128 640.591370,342.158203 641.752319,341.062531 
	C642.195740,340.644104 641.566895,339.089478 640.938354,337.541840 
z"/>
<path fill="#0B0B0B" opacity="1.000000" stroke="none" 
	d="
M1116.423340,302.955505 
	C1103.301025,305.434357 1095.682617,312.467133 1095.035156,322.310974 
	C1094.148682,335.787750 1105.676392,346.065308 1120.931641,345.398804 
	C1129.151123,345.039703 1131.143799,344.296814 1142.153809,337.417908 
	C1143.315186,338.690796 1144.516602,340.007568 1145.718872,341.325409 
	C1134.370361,351.693695 1114.042358,353.845215 1101.288330,346.188354 
	C1083.897217,335.747528 1084.308105,311.576599 1102.046753,301.582062 
	C1115.473877,294.016815 1134.743286,296.470245 1146.424927,307.558228 
	C1145.330688,309.006256 1144.194214,310.510223 1142.789429,312.369141 
	C1135.586304,304.606567 1126.823486,302.030640 1116.423340,302.955505 
z"/>
<path fill="#0A0A0A" opacity="1.000000" stroke="none" 
	d="
M693.005615,321.958374 
	C696.657715,314.447357 700.229675,307.316559 703.677612,300.126312 
	C704.889832,297.598328 706.277283,296.758759 707.740234,299.637360 
	C716.162781,316.209778 724.467529,332.842041 732.831726,349.492981 
	C728.038696,351.175812 725.263000,349.540497 723.965820,345.118317 
	C721.897766,338.068085 717.437439,334.928284 710.007996,336.412445 
	C708.726013,336.668610 707.314209,336.645508 706.021301,336.417267 
	C696.518677,334.739563 689.783997,337.305420 686.966003,347.512421 
	C686.531494,349.086273 682.888184,349.774231 680.728821,350.871857 
	C680.397339,350.407745 680.065796,349.943604 679.734253,349.479492 
	C681.630005,345.465607 683.525757,341.451721 685.026489,338.274353 
	C683.889587,335.881195 683.037109,334.086609 681.660156,331.188019 
	C690.329529,332.889465 690.327637,326.287476 693.005615,321.958374 
M714.121765,325.547699 
	C711.497620,320.174591 708.873413,314.801453 705.892517,308.697845 
	C702.068542,316.740540 698.763672,323.691406 695.271912,331.035370 
	C702.680542,331.035370 709.376709,331.035370 716.642090,331.035370 
	C715.816895,329.173767 715.169067,327.712250 714.121765,325.547699 
z"/>
<path fill="#0A0A0A" opacity="1.000000" stroke="none" 
	d="
M1206.658569,314.522339 
	C1209.546875,308.638062 1212.252686,303.082275 1214.958496,297.526520 
	C1215.525391,297.549225 1216.092407,297.571930 1216.659424,297.594604 
	C1225.364624,314.820465 1234.069702,332.046326 1242.807861,349.337463 
	C1238.039795,351.379669 1235.286743,349.563354 1234.069824,345.284332 
	C1231.953613,337.842224 1227.315918,335.189026 1219.685547,336.329315 
	C1215.284180,336.987061 1210.695801,336.614502 1206.207642,336.387787 
	C1203.436890,336.247803 1201.872192,337.182098 1200.960327,339.781525 
	C1200.305054,341.649597 1198.993774,343.299530 1198.422119,345.182495 
	C1197.125122,349.455353 1194.527588,351.012299 1189.680786,349.577911 
	C1191.596680,345.533142 1193.478516,341.560455 1194.899292,338.561066 
	C1193.840332,335.905121 1193.065308,333.961456 1191.884888,331.001434 
	C1197.609131,332.338074 1199.606689,329.859741 1201.082520,326.076904 
	C1202.587036,322.220428 1204.654785,318.583771 1206.658569,314.522339 
M1214.807617,311.146576 
	C1211.671997,317.638458 1208.536377,324.130371 1205.206177,331.025360 
	C1212.683594,331.025360 1219.380859,331.025360 1226.839844,331.025360 
	C1223.264282,323.778015 1219.936401,317.010864 1216.538086,310.279297 
	C1216.458862,310.122131 1215.587402,310.364899 1214.807617,311.146576 
z"/>
<path fill="#0C0C0C" opacity="1.000000" stroke="none" 
	d="
M993.249146,334.554932 
	C995.527039,348.092682 1017.695679,348.595673 1024.976929,337.874329 
	C1026.191284,339.201202 1027.369263,340.488342 1028.560303,341.789703 
	C1024.556396,348.521820 1014.295471,352.117157 1003.854126,350.407532 
	C993.907104,348.778839 988.810608,344.062958 986.558960,334.186951 
	C985.220764,334.069550 983.793091,333.944336 982.248657,333.808868 
	C982.248657,332.224701 982.248657,330.944580 982.248657,329.340912 
	C983.654114,329.150238 985.069336,328.958191 986.457520,328.769867 
	C990.709412,315.322052 1001.295349,309.270325 1015.010986,312.396729 
	C1024.995239,314.672577 1029.776855,322.313782 1028.068359,334.157776 
	C1016.580566,334.157776 1004.981201,334.157776 993.249146,334.554932 
M998.762939,320.080292 
	C996.649902,322.744141 994.536865,325.408020 991.866394,328.774658 
	C1003.029419,328.774658 1012.581787,328.774658 1022.146851,328.774658 
	C1021.680847,322.404694 1019.310364,319.368469 1013.730408,317.866486 
	C1008.717834,316.517181 1003.897339,316.802765 998.762939,320.080292 
z"/>
<path fill="#090909" opacity="1.000000" stroke="none" 
	d="
M943.644165,313.044067 
	C946.208679,314.287476 948.372803,315.453491 950.759460,316.739471 
	C950.884094,315.476898 951.005371,314.248596 951.144836,312.835815 
	C952.818115,312.835815 954.404663,312.835815 956.228394,312.835815 
	C956.228394,325.148132 956.228394,337.229492 956.228394,349.712463 
	C954.692566,349.836365 953.131470,349.962311 951.169800,350.120575 
	C950.975403,348.739044 950.804749,347.526184 950.617371,346.194000 
	C950.154114,346.261200 949.580322,346.174164 949.249817,346.417511 
	C942.848694,351.131927 935.693481,351.641266 928.335999,349.778992 
	C919.213257,347.469940 914.320251,339.936646 914.882629,329.761536 
	C915.395935,320.473175 921.550964,313.430603 930.921753,312.320312 
	C934.947083,311.843384 939.131592,312.710297 943.644165,313.044067 
M940.680908,344.811981 
	C945.380249,343.262573 948.950928,340.519928 950.116882,335.461914 
	C951.389160,329.943024 950.746826,324.691376 946.359985,320.753052 
	C941.759888,316.623291 936.189758,316.166412 930.428894,317.941223 
	C923.863586,319.963867 920.383545,325.604736 920.954529,333.067780 
	C921.448059,339.517303 926.145081,344.365936 932.874939,345.083466 
	C935.167664,345.327911 937.518311,345.029510 940.680908,344.811981 
z"/>
<path fill="#0A0A0A" opacity="1.000000" stroke="none" 
	d="
M1164.999390,327.830566 
	C1162.865112,327.833923 1161.214111,327.833923 1159.018066,327.833923 
	C1159.018066,335.207886 1159.018066,342.422394 1159.018066,349.818115 
	C1156.859985,349.818115 1155.244873,349.818115 1153.249756,349.818115 
	C1153.249756,342.795074 1153.249756,335.704041 1153.249756,328.612976 
	C1152.912354,328.805817 1152.574829,328.998657 1152.237427,329.191498 
	C1150.913818,327.544403 1149.590210,325.897308 1147.636963,323.466614 
	C1150.399414,323.019623 1151.611328,322.823517 1153.049927,322.590729 
	C1153.049927,314.416870 1153.049927,306.479614 1153.049927,297.566528 
	C1162.061646,298.039642 1170.819702,298.064301 1179.459106,299.089539 
	C1186.475586,299.922180 1190.131958,304.207428 1190.818237,310.397278 
	C1191.489868,316.456512 1188.469482,322.794922 1182.481567,324.822357 
	C1177.093872,326.646637 1171.170166,326.887817 1164.999390,327.830566 
M1182.022949,318.505585 
	C1187.122803,311.449982 1185.137451,305.355103 1176.669678,303.853699 
	C1170.906982,302.831970 1164.915649,303.099365 1159.155762,302.797089 
	C1159.155762,309.941315 1159.155762,316.207520 1159.155762,322.435303 
	C1169.274780,323.607727 1175.684326,322.598572 1182.022949,318.505585 
z"/>
<path fill="#0B0B0B" opacity="1.000000" stroke="none" 
	d="
M842.879639,350.051147 
	C838.193665,350.036163 833.769653,350.624817 829.664673,349.737396 
	C820.250427,347.702179 814.586426,339.835022 815.001648,330.517853 
	C815.417542,321.186920 822.022644,313.960754 831.711975,312.236633 
	C841.836426,310.435028 851.973083,314.460938 856.009644,321.959015 
	C860.675232,330.625397 859.403687,345.700348 842.879639,350.051147 
M830.226990,318.367401 
	C822.497864,322.372681 819.301514,329.315613 821.987061,336.265991 
	C824.638611,343.128387 832.785217,346.775269 841.148193,344.843658 
	C848.722168,343.094238 852.952026,337.103455 852.011841,329.457214 
	C850.895386,320.377411 841.844666,315.492889 830.226990,318.367401 
z"/>
<path fill="#0C0C0C" opacity="1.000000" stroke="none" 
	d="
M739.411011,317.547729 
	C745.673584,310.340332 753.772888,311.662842 761.456421,312.190948 
	C765.328003,312.457031 769.106628,314.075684 773.359924,315.196777 
	C772.304138,317.166321 771.550293,318.572662 771.216675,319.195068 
	C764.618042,318.411377 758.604065,317.227875 752.587708,317.215759 
	C750.212708,317.210968 747.832520,319.816071 745.454651,321.232788 
	C747.433716,323.147858 749.093689,325.831390 751.460022,326.813812 
	C756.019653,328.706940 761.011902,329.530945 765.762207,331.000427 
	C769.992126,332.308960 772.555664,335.205688 772.577026,339.782104 
	C772.598511,344.394135 769.822571,347.365112 765.789551,348.681610 
	C755.744629,351.960510 745.885132,351.288544 735.972168,346.354614 
	C736.953064,344.538727 737.773560,343.019836 738.730713,341.247955 
	C744.980042,344.883789 751.351807,346.271820 758.157410,345.140839 
	C759.457520,344.924805 760.966919,344.795074 761.938538,344.050079 
	C763.391724,342.935730 765.433350,341.297974 765.414368,339.907593 
	C765.394287,338.437744 763.532104,336.389038 761.977844,335.675629 
	C759.150452,334.377777 755.950317,333.899048 752.915588,333.043457 
	C750.522766,332.368835 748.057190,331.850952 745.776855,330.897705 
	C739.368286,328.218628 737.720459,324.792725 739.411011,317.547729 
z"/>
<path fill="#0C0C0C" opacity="1.000000" stroke="none" 
	d="
M779.263184,316.312836 
	C790.173889,308.915588 800.970947,311.583252 812.273865,315.361328 
	C811.303894,317.167877 810.548767,318.574158 810.215515,319.194824 
	C803.615417,318.411163 797.601257,317.227692 791.584839,317.215973 
	C789.210449,317.211334 786.830933,319.818024 784.453735,321.235596 
	C786.434021,323.149933 788.095703,325.832001 790.462830,326.814545 
	C795.022705,328.707336 800.014832,329.531281 804.764954,331.001373 
	C808.994812,332.310394 811.556885,335.208649 811.576904,339.785034 
	C811.597107,344.397217 808.819824,347.366699 804.786804,348.682648 
	C794.741943,351.960266 784.883057,351.288391 774.971680,346.353607 
	C775.953857,344.536896 776.774597,343.018738 777.732422,341.247162 
	C783.982361,344.886414 790.354858,346.270538 797.160217,345.140442 
	C798.460327,344.924530 799.969971,344.794495 800.941101,344.049164 
	C802.393677,342.934326 804.434265,341.295044 804.414124,339.905029 
	C804.392883,338.434662 802.530212,336.387482 800.975464,335.674164 
	C798.147705,334.376862 794.940613,333.921539 791.914795,333.036499 
	C789.213684,332.246490 786.414551,331.627228 783.885071,330.447296 
	C777.534058,327.484650 776.122559,323.167755 779.263184,316.312836 
z"/>
<path fill="#0C0C0C" opacity="1.000000" stroke="none" 
	d="
M1039.475098,349.687805 
	C1036.476440,348.603790 1033.873901,347.628387 1030.872803,346.503571 
	C1031.964600,344.507965 1032.791992,342.995667 1033.764404,341.218170 
	C1040.324707,345.176331 1047.129395,346.546417 1054.147949,344.864014 
	C1056.555420,344.286926 1059.949097,342.246643 1060.398071,340.299622 
	C1061.199829,336.823059 1057.650879,335.578674 1054.643188,334.767639 
	C1050.321289,333.602264 1045.942139,332.604492 1041.703979,331.186279 
	C1037.023804,329.620117 1033.294922,326.925690 1033.497559,321.258514 
	C1033.708862,315.341309 1038.103516,313.434723 1042.821045,312.526276 
	C1051.326050,310.888489 1059.680420,311.645905 1068.032349,315.548950 
	C1067.318237,317.030640 1066.641479,318.435059 1066.189331,319.373260 
	C1060.165771,318.524597 1054.509766,317.646393 1048.828613,316.984192 
	C1047.400024,316.817627 1045.664551,316.954407 1044.474609,317.646912 
	C1042.901001,318.562683 1040.722412,320.112091 1040.653320,321.482330 
	C1040.580322,322.929779 1042.393433,324.960663 1043.904053,325.876923 
	C1045.824951,327.042084 1048.269043,327.346344 1050.489380,328.015900 
	C1054.295044,329.163513 1058.151489,330.166656 1061.894531,331.491119 
	C1065.567627,332.790863 1068.083496,335.843109 1067.377197,339.472656 
	C1066.785767,342.512085 1064.752319,346.524841 1062.248047,347.660461 
	C1057.889648,349.636841 1052.703369,349.970886 1047.810791,350.511353 
	C1045.222168,350.797272 1042.521484,350.067535 1039.475098,349.687805 
z"/>
<path fill="#0B0B0B" opacity="1.000000" stroke="none" 
	d="
M864.524170,343.342712 
	C858.350342,333.189789 860.208008,321.751434 868.299438,315.868469 
	C876.596252,309.836243 894.961304,310.166748 901.035889,320.967010 
	C899.911499,322.237091 898.737549,323.563080 897.567505,324.884705 
	C888.232788,315.663361 877.267700,314.643982 870.382996,321.914703 
	C865.388062,327.189697 865.676025,336.341705 870.993103,341.302643 
	C877.848633,347.699097 889.959229,346.282837 897.410767,337.969635 
	C898.710266,339.111786 900.015747,340.259155 901.293762,341.382385 
	C894.694641,352.899933 874.442871,354.045197 864.524170,343.342712 
z"/>
<path fill="#0E0E0E" opacity="1.000000" stroke="none" 
	d="
M964.972778,325.053345 
	C964.972839,322.411896 964.972839,320.263489 964.972839,317.897644 
	C962.962769,317.721832 961.204956,317.568085 959.207764,317.393372 
	C959.207764,315.797211 959.207764,314.373627 959.207764,312.797821 
	C961.081787,312.646729 962.868042,312.502716 964.777405,312.348755 
	C965.614319,308.212860 962.872498,302.288544 970.726929,301.498901 
	C970.726929,305.081055 970.726929,308.632629 970.726929,312.488586 
	C974.715332,312.488586 978.156189,312.488586 981.956055,312.488586 
	C982.067383,314.184845 982.159119,315.581665 982.284363,317.490601 
	C978.392700,317.490601 974.830688,317.490601 970.998474,317.490601 
	C970.998474,325.084290 970.796936,332.201569 971.063538,339.301300 
	C971.270203,344.805542 975.552795,345.110840 980.076050,345.069855 
	C980.193176,346.565979 980.302979,347.967804 980.439575,349.712555 
	C979.442017,349.835907 978.676453,350.011597 977.910583,350.012909 
	C968.645020,350.028931 965.146973,346.664673 964.991089,337.527283 
	C964.923035,333.534698 964.975220,329.540039 964.972778,325.053345 
z"/>
<path fill="#0B0B0B" opacity="1.000000" stroke="none" 
	d="
M910.821045,335.989502 
	C910.817261,340.784393 910.817261,345.081757 910.817261,349.697083 
	C908.722534,349.697083 907.024963,349.697083 905.141235,349.697083 
	C905.141235,337.438171 905.141235,325.224701 905.141235,312.884247 
	C907.101685,312.884247 908.845642,312.884247 910.824768,312.884247 
	C910.824768,320.610565 910.824768,328.051270 910.821045,335.989502 
z"/>
<path fill="#000000" opacity="1.000000" stroke="none" 
	d="
M907.952393,306.057373 
	C901.753479,305.105774 906.146912,300.890076 904.401489,298.228699 
	C906.776123,298.228699 908.538818,298.228699 910.855530,298.228699 
	C909.636292,300.731140 914.319519,304.634796 907.952393,306.057373 
z"/>
<path fill="#FEFEFE" opacity="1.000000" stroke="none" 
	d="
M784.160339,175.742096 
	C814.488770,197.374054 811.274231,238.460602 777.722229,254.696548 
	C756.812866,264.814636 735.082336,264.613800 714.301147,253.812653 
	C696.997498,244.818985 687.998108,230.042145 689.130005,210.314880 
	C690.219604,191.323364 700.932739,178.322205 717.906128,171.136978 
	C740.373108,161.626190 762.628784,162.850388 784.160339,175.742096 
z"/>
<path fill="#FEFEFE" opacity="1.000000" stroke="none" 
	d="
M1155.391846,182.616089 
	C1175.325928,203.301575 1172.507690,240.555420 1139.598999,255.264465 
	C1118.242188,264.810211 1096.473999,264.449646 1075.760498,252.969452 
	C1060.343506,244.424789 1052.020264,230.877441 1052.023804,213.035278 
	C1052.027222,195.303513 1060.456299,181.798920 1075.867676,173.783920 
	C1100.834106,160.799606 1125.700562,161.715027 1149.497559,177.462845 
	C1151.556763,178.825623 1153.265747,180.717728 1155.391846,182.616089 
z"/>
<path fill="#FCFDFD" opacity="1.000000" stroke="none" 
	d="
M369.049866,228.643692 
	C377.068024,211.830032 384.985291,195.422455 393.334076,178.120544 
	C401.959381,195.692444 410.199066,212.478729 418.827759,230.057602 
	C408.771271,230.057602 399.549438,230.057602 390.327606,230.057587 
	C384.342224,230.057587 378.355988,230.109558 372.372192,230.011963 
	C371.226227,229.993286 370.089813,229.385696 369.049866,228.643692 
z"/>
<path fill="#F8F8F8" opacity="1.000000" stroke="none" 
	d="
M641.182556,337.797241 
	C641.566895,339.089478 642.195740,340.644104 641.752319,341.062531 
	C640.591370,342.158203 639.026855,342.919128 637.508545,343.527405 
	C630.598938,346.295624 624.386108,344.758789 621.735352,339.732056 
	C619.044189,334.628479 621.163391,328.975433 627.649109,324.453583 
	C632.047729,328.785645 636.493042,333.163727 641.182556,337.797241 
z"/>
<path fill="#F9F9F9" opacity="1.000000" stroke="none" 
	d="
M714.321472,325.899231 
	C715.169067,327.712250 715.816895,329.173767 716.642090,331.035370 
	C709.376709,331.035370 702.680542,331.035370 695.271912,331.035370 
	C698.763672,323.691406 702.068542,316.740540 705.892517,308.697845 
	C708.873413,314.801453 711.497620,320.174591 714.321472,325.899231 
z"/>
<path fill="#F9F9F9" opacity="1.000000" stroke="none" 
	d="
M1214.946533,310.783844 
	C1215.587402,310.364899 1216.458862,310.122131 1216.538086,310.279297 
	C1219.936401,317.010864 1223.264282,323.778015 1226.839844,331.025360 
	C1219.380859,331.025360 1212.683594,331.025360 1205.206177,331.025360 
	C1208.536377,324.130371 1211.671997,317.638458 1214.946533,310.783844 
z"/>
<path fill="#FBFBFB" opacity="1.000000" stroke="none" 
	d="
M999.091797,319.890564 
	C1003.897339,316.802765 1008.717834,316.517181 1013.730408,317.866486 
	C1019.310364,319.368469 1021.680847,322.404694 1022.146851,328.774658 
	C1012.581787,328.774658 1003.029419,328.774658 991.866394,328.774658 
	C994.536865,325.408020 996.649902,322.744141 999.091797,319.890564 
z"/>
<path fill="#FCFCFC" opacity="1.000000" stroke="none" 
	d="
M940.261719,344.895569 
	C937.518311,345.029510 935.167664,345.327911 932.874939,345.083466 
	C926.145081,344.365936 921.448059,339.517303 920.954529,333.067780 
	C920.383545,325.604736 923.863586,319.963867 930.428894,317.941223 
	C936.189758,316.166412 941.759888,316.623291 946.359985,320.753052 
	C950.746826,324.691376 951.389160,329.943024 950.116882,335.461914 
	C948.950928,340.519928 945.380249,343.262573 940.261719,344.895569 
z"/>
<path fill="#FBFBFB" opacity="1.000000" stroke="none" 
	d="
M1181.735229,318.751465 
	C1175.684326,322.598572 1169.274780,323.607727 1159.155762,322.435303 
	C1159.155762,316.207520 1159.155762,309.941315 1159.155762,302.797089 
	C1164.915649,303.099365 1170.906982,302.831970 1176.669678,303.853699 
	C1185.137451,305.355103 1187.122803,311.449982 1181.735229,318.751465 
z"/>
<path fill="#FBFBFB" opacity="1.000000" stroke="none" 
	d="
M830.596680,318.233398 
	C841.844666,315.492889 850.895386,320.377411 852.011841,329.457214 
	C852.952026,337.103455 848.722168,343.094238 841.148193,344.843658 
	C832.785217,346.775269 824.638611,343.128387 821.987061,336.265991 
	C819.301514,329.315613 822.497864,322.372681 830.596680,318.233398 
z"/>
</svg>